<?xml version="1.0" encoding="UTF-8"?>
<svg id="Layer_2" data-name="Layer 2" xmlns="http://www.w3.org/2000/svg" viewBox="0 0 49.69 66.68">
  <defs>
    <style>
      .cls-1 {
        stroke-width: .71px;
      }

      .cls-1, .cls-2 {
        fill: none;
        stroke: #44524f;
        stroke-linecap: round;
        stroke-linejoin: round;
      }

      .cls-3 {
        fill: #fff;
      }

      .cls-4 {
        fill: #b1e3fa;
      }

      .cls-5 {
        fill: #35895e;
      }

      .cls-6 {
        fill: #44524f;
      }

      .cls-7 {
        fill: #4586a4;
      }

      .cls-2 {
        stroke-width: .46px;
      }
    </style>
  </defs>
  <g id="Layer_1-2" data-name="Layer 1">
    <g>
      <path class="cls-4" d="m48.31,65.39H1.3V24.88c0-6.28,2.44-12.18,6.88-16.62C12.63,3.82,18.53,1.37,24.81,1.37s12.18,2.44,16.62,6.88c4.44,4.44,6.88,10.34,6.88,16.62v40.52Z"/>
      <path class="cls-7" d="m1.23,37.02l4.48-4.39c.28-.27.73-.28,1.01-.02l3.75,3.37c.28.25.71.25.99,0h0c.27-.24.69-.25.97-.01l1.18,1c.27.23.66.23.94.02l3.44-2.66c.26-.2.62-.21.89-.02l2.24,1.6c.22.16.52.18.77.06l.43-.22c.24-.12.54-.1.76.05l3.23,2.25c.26.18.62.18.88-.02l2.19-1.68c.25-.19.61-.2.87-.02l1.99,1.35c.29.19.67.17.92-.07l2.41-2.23c.24-.23.61-.26.9-.08l1.08.67c.25.16.58.15.83-.03l.91-.66c.24-.18.57-.19.83-.03l8.62,5.39c.21.13.34.36.34.61v24.24c0,.4-.33.72-.73.72H1.75c-.41,0-.73-.32-.73-.72v-27.98c0-.19.08-.37.21-.51Z"/>
      <rect class="cls-7" x=".29" y="43.72" width="48.53" height="22.2"/>
      <path class="cls-6" d="m42.41,7.28C37.72,2.58,31.48,0,24.85,0S11.97,2.58,7.28,7.28C2.58,11.97,0,18.21,0,24.85v41.83h49.69V24.85c0-6.64-2.58-12.88-7.28-17.57Zm5.93,58.08H1.34V24.85c0-6.28,2.44-12.18,6.88-16.62C12.67,3.79,18.57,1.34,24.85,1.34s12.18,2.44,16.62,6.88c4.44,4.44,6.88,10.34,6.88,16.62v40.52Z"/>
      <g>
        <g>
          <path class="cls-5" d="m21.67,25.97c-.7.11-1.31.61-1.51,1.34s.06,1.47.6,1.92c.7-.11,1.31-.61,1.51-1.34.2-.73-.06-1.47-.6-1.92Z"/>
          <path class="cls-5" d="m17.33,25.94c-.51.49-.73,1.25-.48,1.96.25.71.88,1.18,1.59,1.24.51-.49.73-1.25.48-1.96-.25-.71-.88-1.18-1.59-1.24Z"/>
          <path class="cls-5" d="m15.5,28.13c-.65.29-1.1.93-1.11,1.68,0,.75.44,1.41,1.08,1.7.65-.29,1.1-.93,1.11-1.68,0-.75-.44-1.41-1.08-1.7Z"/>
          <path class="cls-5" d="m10.89,31.53c.65.28,1.43.17,1.99-.35s.72-1.28.5-1.95c-.65-.28-1.43-.17-1.99.35s-.72,1.28-.5,1.95Z"/>
          <path class="cls-5" d="m5.14,29.34c.65.28,1.43.17,1.99-.35s.72-1.28.5-1.95c-.65-.28-1.43-.17-1.99.35s-.72,1.28-.5,1.95Z"/>
          <path class="cls-5" d="m8.85,28.72c.5.5,1.27.69,1.97.43.7-.27,1.15-.92,1.2-1.62-.5-.5-1.27-.69-1.97-.43-.7.27-1.15.92-1.2,1.62Z"/>
          <path class="cls-5" d="m11.28,24.87c.45.55,1.19.82,1.92.63.73-.19,1.24-.79,1.36-1.49-.45-.55-1.19-.82-1.92-.63-.73.19-1.24.79-1.36,1.49Z"/>
          <path class="cls-5" d="m4.72,20.14c.66.26,1.44.12,1.97-.4.54-.53.69-1.3.44-1.97-.66-.26-1.44-.12-1.97.4-.54.53-.69,1.3-.44,1.97Z"/>
          <path class="cls-5" d="m6.01,21.58c.45.55,1.19.82,1.92.63.73-.19,1.24-.79,1.36-1.49-.45-.55-1.19-.82-1.92-.63-.73.19-1.24.79-1.36,1.49Z"/>
          <path class="cls-5" d="m10.39,20.01c-.46.54-.58,1.32-.26,2,.33.68,1.01,1.07,1.72,1.05.46-.54.58-1.32.26-2s-1.01-1.07-1.72-1.05Z"/>
          <path class="cls-5" d="m4.29,22.14c-.46.54-.58,1.32-.26,2,.33.68,1.01,1.07,1.72,1.05.46-.54.58-1.32.26-2s-1.01-1.07-1.72-1.05Z"/>
          <path class="cls-5" d="m20.49,19.56c-.42.57-.49,1.36-.12,2.01s1.08,1,1.79.93c.42-.57.49-1.36.12-2.01-.37-.66-1.08-1-1.79-.93Z"/>
          <path class="cls-5" d="m16.81,18.91c-.34.62-.31,1.41.15,2.01s1.2.85,1.89.69c.34-.62.31-1.41-.15-2.01-.45-.6-1.2-.85-1.89-.69Z"/>
          <path class="cls-5" d="m7.86,13.94c-.16.69.08,1.44.67,1.9s1.38.5,2.01.17c.16-.69-.08-1.44-.67-1.9-.6-.46-1.38-.5-2.01-.17Z"/>
          <path class="cls-5" d="m15.81,15.69c-.06.7.28,1.41.94,1.78.66.37,1.44.29,2.01-.13.06-.7-.28-1.41-.94-1.78s-1.44-.29-2.01.13Z"/>
          <path class="cls-5" d="m12.79,9.67c-.54.45-.81,1.2-.6,1.92.2.73.81,1.23,1.51,1.34.54-.45.81-1.2.6-1.92-.2-.73-.81-1.23-1.51-1.34Z"/>
          <path class="cls-5" d="m16,7.41c-.7.09-1.32.59-1.53,1.31-.21.72.03,1.47.57,1.93.7-.09,1.32-.59,1.53-1.31.21-.72-.03-1.47-.57-1.93Z"/>
          <path class="cls-5" d="m16.47,10.62c-.63.32-1.05.98-1.02,1.74s.51,1.38,1.16,1.64c.63-.32,1.05-.98,1.02-1.74s-.51-1.38-1.16-1.64Z"/>
          <path class="cls-5" d="m20.06,8.07c.33-.63.28-1.42-.19-2.01-.47-.59-1.22-.82-1.91-.65-.33.63-.28,1.42.19,2.01s1.22.82,1.91.65Z"/>
          <path class="cls-5" d="m24.83,8c-.64-.3-1.42-.23-2,.26-.57.49-.78,1.25-.58,1.93.64.3,1.42.23,2-.26.57-.49.78-1.25.58-1.93Z"/>
          <path class="cls-5" d="m23.37,5.31c-.64-.3-1.42-.23-2,.26-.57.49-.78,1.25-.58,1.93.64.3,1.42.23,2-.26.57-.49.78-1.25.58-1.93Z"/>
          <path class="cls-5" d="m25.28,6.82c.65-.29,1.1-.93,1.11-1.68,0-.75-.44-1.41-1.08-1.7-.65.29-1.1.93-1.11,1.68,0,.75.44,1.41,1.08,1.7Z"/>
          <path class="cls-5" d="m21.89,11.22c-.69-.14-1.44.12-1.88.73-.44.61-.46,1.4-.1,2.01.69.14,1.44-.12,1.88-.73.44-.61.46-1.4.1-2.01Z"/>
          <path class="cls-5" d="m27.43,18.72c-.69-.14-1.44.12-1.88.73-.44.61-.46,1.4-.1,2.01.69.14,1.44-.12,1.88-.73.44-.61.46-1.4.1-2.01Z"/>
          <path class="cls-5" d="m28.1,14.17c-.68.19-1.23.76-1.34,1.5-.12.74.23,1.45.82,1.84.68-.19,1.23-.76,1.34-1.5.12-.74-.23-1.45-.82-1.84Z"/>
          <path class="cls-5" d="m27.38,11.67c-.7-.12-1.43.16-1.85.79-.42.62-.41,1.41-.04,2.01.7.12,1.43-.16,1.85-.79.42-.62.41-1.41.04-2.01Z"/>
          <path class="cls-5" d="m25.94,8.49c-.03.71.34,1.4,1.02,1.74s1.45.23,2-.21c.03-.71-.34-1.4-1.02-1.74s-1.45-.23-2,.21Z"/>
          <path class="cls-5" d="m27.25,5.47c-.21.68-.03,1.44.54,1.94s1.35.6,1.99.31c.21-.68.03-1.44-.54-1.94s-1.35-.6-1.99-.31Z"/>
          <path class="cls-5" d="m30.6,11.02c.7.12,1.43-.16,1.86-.79s.41-1.41.04-2.01c-.7-.12-1.43.16-1.86.79s-.41,1.41-.04,2.01Z"/>
          <path class="cls-5" d="m32.21,15.53c.7.11,1.43-.18,1.84-.81s.39-1.42.02-2.02c-.7-.11-1.43.18-1.84.81-.41.63-.39,1.42-.02,2.02Z"/>
          <path class="cls-5" d="m37.35,13.18c.67.22,1.44.05,1.95-.5.51-.55.62-1.34.34-1.99-.67-.22-1.44-.05-1.95.5-.51.55-.62,1.34-.34,1.99Z"/>
          <path class="cls-5" d="m38.2,16.02c.61.36,1.4.35,2.01-.09.61-.44.88-1.18.74-1.87-.61-.36-1.4-.35-2.01.09-.61.44-.88,1.18-.74,1.87Z"/>
          <path class="cls-5" d="m33.78,10.74c.28.65.91,1.12,1.67,1.13.75.02,1.41-.42,1.72-1.06-.28-.65-.91-1.12-1.67-1.13-.75-.02-1.41.42-1.72,1.06Z"/>
          <path class="cls-5" d="m33.33,7.84c.27.65.91,1.12,1.66,1.14.75.02,1.41-.41,1.72-1.05-.27-.65-.91-1.12-1.66-1.14-.75-.02-1.41.41-1.72,1.05Z"/>
          <path class="cls-5" d="m30.57,7.64c.63.31,1.42.25,2-.23.58-.48.79-1.24.61-1.92-.63-.31-1.42-.25-2,.23-.58.48-.79,1.24-.61,1.92Z"/>
          <path class="cls-5" d="m31.99,18.97c.62.34,1.41.31,2.01-.14.6-.45.85-1.2.7-1.89-.62-.34-1.41-.31-2.01.14-.6.45-.85,1.2-.7,1.89Z"/>
          <path class="cls-5" d="m36.36,22.06c.61.37,1.39.37,2.01-.06.62-.43.9-1.17.77-1.86-.61-.37-1.39-.37-2.01.06-.62.43-.9,1.17-.77,1.86Z"/>
          <path class="cls-5" d="m38.64,23.72c.61.37,1.39.37,2.01-.06.62-.43.9-1.17.77-1.86-.61-.37-1.39-.37-2.01.06-.62.43-.9,1.17-.77,1.86Z"/>
          <path class="cls-5" d="m39.32,27.18c.7.1,1.43-.21,1.83-.85.4-.64.37-1.43-.02-2.02-.7-.1-1.43.21-1.83.85-.4.64-.37,1.43.02,2.02Z"/>
          <path class="cls-5" d="m41.63,20.25c-.11.7.2,1.43.83,1.84.63.41,1.42.38,2.02,0,.11-.7-.2-1.43-.83-1.84-.63-.41-1.42-.38-2.02,0Z"/>
          <path class="cls-5" d="m35.59,13.25c-.47.53-.61,1.31-.29,1.99.31.69.99,1.09,1.7,1.08.47-.53.61-1.31.29-1.99-.31-.69-.99-1.09-1.7-1.08Z"/>
          <path class="cls-5" d="m32.27,23.06c.41.58,1.14.89,1.87.74.74-.15,1.29-.72,1.44-1.41-.41-.58-1.14-.89-1.87-.74s-1.29.72-1.44,1.41Z"/>
          <path class="cls-5" d="m29.75,26.98c-.69-.14-1.44.11-1.88.72-.44.61-.46,1.4-.11,2.01.69.14,1.44-.11,1.88-.72.44-.61.46-1.4.11-2.01Z"/>
          <path class="cls-5" d="m31.43,27.06c-.3.64-.22,1.43.27,2,.49.57,1.25.77,1.93.57.3-.64.22-1.43-.27-2s-1.25-.77-1.93-.57Z"/>
          <path class="cls-5" d="m39.46,28.85c-.18.68.03,1.44.62,1.92.58.48,1.37.54,2,.22.18-.68-.03-1.44-.62-1.92-.58-.48-1.37-.54-2-.22Z"/>
          <path class="cls-5" d="m35.12,28.68c-.42.57-.48,1.36-.11,2.01s1.09.99,1.79.92c.42-.57.48-1.36.11-2.01-.37-.65-1.09-.99-1.79-.92Z"/>
          <path class="cls-5" d="m35.28,24.07c-.16.69.08,1.44.67,1.9.6.46,1.38.5,2.01.16.16-.69-.08-1.44-.67-1.9-.6-.46-1.38-.5-2.01-.16Z"/>
          <path class="cls-5" d="m41.92,26.43c.48.52,1.24.73,1.96.49.71-.24,1.18-.88,1.24-1.58-.48-.52-1.24-.73-1.96-.49-.71.24-1.18.88-1.24,1.58Z"/>
          <path class="cls-5" d="m28.49,23.84c.49.51,1.25.72,1.96.47.71-.25,1.17-.89,1.23-1.6-.49-.51-1.25-.72-1.96-.47-.71.25-1.17.89-1.23,1.6Z"/>
          <path class="cls-5" d="m24.18,15.31c-.48.52-.65,1.29-.36,1.98.29.7.95,1.12,1.66,1.14.48-.52.65-1.29.36-1.98-.29-.7-.95-1.12-1.66-1.14Z"/>
          <path class="cls-5" d="m14.44,16.71c-.62.34-1.01,1.02-.95,1.78.06.75.56,1.36,1.23,1.6.62-.34,1.01-1.02.95-1.78s-.56-1.36-1.23-1.6Z"/>
          <path class="cls-5" d="m11.43,13.56c-.29.64-.2,1.43.3,1.99.5.57,1.26.76,1.94.55.29-.64.2-1.43-.3-1.99-.5-.57-1.26-.76-1.94-.55Z"/>
        </g>
        <path class="cls-6" d="m25.31,9.75c-.22.81-.96,1.64-1.64,2.1-.67.45-1.08,1.21-1.45,1.92-.44.85-.67,1.69-.71,2.5-.01.29-.35.43-.57.24-.1-.08-.19-.17-.29-.26-1.21-1.05-1.81-2.13-1.77-3.23.03-.89.47-1.57.96-2.28.17-.25,1.52-1.7,1.35-1.89-.25-.28-1.13.72-1.32.86-.35.27-.68-.01-.9-.3-.5-.66-.81-1.51-1.5-1.97-.22-.14-.46-.24-.72-.28.42.51.84,1.03,1.17,1.6s.69,1.32.53,1.99c-.18.73-.48,1.49-.5,2.24-.02.56.15,1.07.22,1.61-.63-.13-1.28-.22-1.92-.27-.31-.02-.63-.03-.94-.03-.21,0-.59-.09-.75.09-.09.1-.1.25-.05.37.75,0,1.48-.1,2.25-.03.63.06,1.34.19,1.83.63.53.48.9,1.11,1.46,1.58.94.82,1.67,1.52,2.23,2.21,0,.01.02.02.02.03.14.22.3.44.48.66,0,.01.02.02.02.03.89,1.4,1.21,2.95,1.33,5.52,0,.22-.28.31-.39.12-.24-.4-.53-.77-.86-1.1-.74-.72-1.65-1.14-2.71-1.24-.03,0-.06,0-.09,0-.01,0-.02,0-.03,0-3.18-.26-5.5-1.28-6.71-2.96-.52-.71-.63-1.59-1.16-2.26s-1.4-1.15-2.25-1.37c-.95-.24-1.94-.22-2.92-.14-.18.01-.36.03-.51.12s-.27.27-.23.44c1.17-.02,2.37-.03,3.47.35.24.08,1.72.7,1.14,1.09-.09.06-.2.06-.31.06-.44,0-.87,0-1.31,0-.32,0-.74-.02-1.04.12-.21.1-.37.35-.29.57.94-.3,1.96-.35,2.93-.17,1.1.21,1.09.83,1.69,1.68.64.91,1.78,1.96,3.79,2.67.28.1.31.48.05.63-.61.34-1.13.77-1.62,1.26-.55.55-.9.65-1.71.71-1.21.09-2.45-.12-3.57-.61s-1.92-1.44-2.51-2.48c-.15-.04-.3.12-.3.28s.08.3.16.44c.25.4.49.8.74,1.2-.93.43-1.8.99-2.58,1.65l.2.49c-.08-.2,1.68-.9,1.87-.96.66-.2,1.2-.3,1.84-.07,1.5.54,3.22.54,4.78.84-.17.31-.33.63-.46.96-.07.19.04.4.23.45l.2.06c.2.06.38-.03.45-.2.14-.37.45-1.05.99-1.73,1.06-1.33,2.48-2.07,4.22-2.18.22-.01.43-.02.64,0,.05,0,.1,0,.14.01.84.08,1.55.4,2.14.98,1.5,1.45,1.9,4.16,1.97,6.28,0,.24,0,.4,0,.47,0,.38,0,7.58-.02,7.9,0,.26-.03.49-.06.69.02-.04.04-.09.07-.13.06-.09.12-.19.2-.26.07-.07.15-.13.24-.17.09-.03.2-.04.29-.01.03,0,.05.02.08.03.02.01.05.02.07.04.04.02.07.05.1.08,0,0,0,.01.01.02-.04-.34-.06-.73-.06-1.18,0-.04,0-7.63,0-7.66.07-.99.45-2.99,2.39-4.46,3.4-2.58,8.02.29,10.03,3.17.21.3.41.61.72.8.3.18.78.22,1.01-.1-.42-.12-.7-.67-.94-1-.3-.41-.8-.94-.94-1.42.49-.1,1.16.11,1.67.13.63.02,1.26,0,1.88-.03.54-.02,1.09-.01,1.63-.06.4-.04.92-.13,1.3-.29.15-.06.19-.03.29-.19.03-.05.11-.54-.02-.51-1.48.3-2.98.59-4.49.53-1.63-.07-2.91-.63-4.21-1.56-1.02-.73-2.32-.94-3.54-1.13-1.69-.26-3.54-.12-4.95.94l-1.05,1.17c-.28.22-.42-.23-.27-.55.3-.66,1.41-2.32,1.75-2.94.32-.54,1.77-2.71,4.73-2.63,1.56.04,3.21-.18,4.48-1.15,1.5-1.15,3.71-1.1,5.45-.42.16-.4-.08-.87-.44-1.11-.26-.17-1.33-.16-1.3-.47.01-.19.17-.32.31-.45.7-.61,1.31-1.44,1.29-2.37-.4.44-.8.89-1.19,1.33-.48.53-.96,1.07-1.55,1.47s-1.27.56-1.94.77c-.32.1-.64.22-.94.38-.22.12-.44.34-.7.24.19-1.1.28-2.13-.01-3.22,0,.14-.01.27-.02.41-.04.79-.09,1.6-.44,2.32-.57,1.17-1.78,1.39-2.96,1.35-.87-.02-1.63.12-2.29.35-.29.1-.56-.2-.42-.48.79-1.58,1.39-3.26,1.47-5.04.04-.89-.12-1.51.29-2.35.22-.45.95-1.66,1.53-1.7-1.15.09-2.18,1.04-2.36,2.19-.66-1.45-.91-3.09-.7-4.67-.14.01-.27.03-.41.04-.16,1.26-.07,2.55.24,3.79.14.56.41,1.09.46,1.66.05.6.01,1.21-.07,1.81-.31,2.24-1.44,4.22-2.54,6.15-.5.88-.97,1.75-1.51,2.6-.08.12-.16.25-.27.33s-.27.13-.41.07c-.32-.15-.24-1.23-.28-1.53-.07-.57-.17-1.15-.33-1.7-.31-1.14-.81-2.07-1.5-2.95-.01-.01-.02-.03-.03-.04-.8-1.34-.8-2.82,0-4.4.31-.61.71-1.18,1.16-1.69.4-.47.72-.93,1.07-1.43.25-.37.47-1,.05-1.34Z"/>
      </g>
      <path class="cls-1" d="m14.48,52.18c-1.71.61-4.01,3.1-4.36,4.58-.13.56-.16,1.01-.22,1.58s-.15,1.17-.43,1.68-.8.92-1.38.93"/>
      <path class="cls-1" d="m18.34,53.06c.11,1.65-.18,3.38-2.04,4.45"/>
      <path class="cls-1" d="m18.55,52.36c-.26,1-.2,2.07.17,3.03.73,1.87,1.05,3.84.35,5.72"/>
      <path class="cls-1" d="m10.12,56.76c-1.11-.03-2.23.36-3.07,1.07s-1.42,1.75-1.57,2.85c-.09.69-.06,1.41-.46,1.98s-1.04.96-1.72,1.06"/>
      <path class="cls-1" d="m9.02,64.11c1.24-1.36,1.59-3.46.85-5.15"/>
      <path class="cls-1" d="m13.97,61.51c.15-1.51.95-2.95,2.15-3.88"/>
      <path class="cls-1" d="m15.22,58.53c-.86.85-2.22,1.15-3.36.75"/>
      <path class="cls-1" d="m11.38,51.84c-.96.72-2.27.67-3.46.61s-3.19-.26-4.38,1.25"/>
      <path class="cls-1" d="m35.58,53.59c1.01,1.22,1.02,3.18,1.48,4.69.4,1.3,1.41,2.4,2.68,2.89,1.02.4,2.14.41,3.21.64s2.19.75,2.62,1.75"/>
      <path class="cls-1" d="m45.75,55.57c-.34.08-1.1.37-2.04-.26-.31-.21-.59-.45-.78-.77-.22-.36-.37-.77-.58-1.14-.46-.84-1.19-1.53-2.06-1.95-.96-.46-1.95-.79-2.99-1.09-.78-.22-2.45-.25-3.3-.29"/>
      <path class="cls-1" d="m40.2,64.22c-.23-.94-.32-1.92-.26-2.89"/>
      <path class="cls-1" d="m38,50.6c2.92,1.91,1.16,4.63,1.99,5.69.32.41.8.67,1.28.85s5.65,1.83,5.53,3.82"/>
      <path class="cls-1" d="m36.41,47.87c2.58.46,4.7,1.25,5.28,2.49.4.86,1.14,1.53,2.05,1.79.45.12.92.14,1.37.25s.91.33,1.15.73"/>
      <path class="cls-1" d="m13.16,49.78c-1.88.69-4.14.38-5.1.13s-1.99-.48-2.93-.16"/>
      <path class="cls-1" d="m4,57.4c.27-2.79,3.84-4.61,5.25-4.89"/>
      <path class="cls-1" d="m39.99,56.29c.27.92.14,1.6-.35,2.43"/>
      <path class="cls-6" d="m39.21,48.58c0-.12-.17-.25-.25-.3-.2-.13-.79-.38-1.02-.45-1.74-.49-3.17-.59-4.97-.77-1.64-.16-3.29.03-4.86-.6-.37-.15-.72-.33-1.04-.56-1.51-1.04-1.09-4.16-1.28-5.64,0,0-.61-.29-.63-.31,0,0,0,0,0-.01-.01-.01-.03-.03-.04-.04,0,0-.01-.01-.03-.02,0,0,0,0,0,0-.02-.01-.04-.02-.06-.03-.02,0-.04-.02-.07-.02-.01,0-.02,0-.03,0,0,0-.01,0-.03,0-.02,0-.04,0-.06,0-.01,0-.02,0-.04,0,0,0,0,0-.01,0-.02,0-.04,0-.06.02,0,0,0,0-.03.01,0,0-.02,0-.03.01-.02,0-.04.02-.05.03,0,0,0,0-.02.02,0,0-.02.01-.02.02-.03.03-.06.06-.09.1-.03.04-.06.07-.08.11-.03.04-.05.08-.08.13-.03.05-.3.42-.32.47-.05,1.26.05,3.86-.89,4.64-.63.52-1.86,1.1-2.65,1.26-.85.17-1.7.26-2.55.52-.81.24-1.6.56-2.35.94-.47.24-.93.51-1.37.81-.93.62-2.08.59-3.02,1.1-.72.39.53.51.61.77.15.49-.53.78-.83,1.04-.26.23-.59.62-.05.73.46.09.98-.6,1.25-.87.63-.66,1.32-1.27,2.06-1.81.42-.31.85-.59,1.3-.85.14-.08.28-.15.43-.22.23-.11.49.1.42.35-.05.18-.09.36-.11.55-.01.12-.02.24.03.36.04.11.13.21.25.23.14.02.28-.08.34-.21.07-.13.08-.27.11-.41.3-1.52,1.65-2.01,3.01-2.19.17-.01.34-.03.5-.05.01,0,.02,0,.03,0,1.05-.15,1.95-.5,2.66-1.05.04-.03.08-.07.12-.1-.71,1.23-1.73,2.26-3.05,3.07,0,0-.02.01-.03.02-.82.5-1.75.92-2.8,1.26-2.75.89-4.69,2.05-5.77,3.17-.18.19.13.61.4.61l.4-.39c.08,0,.58-.49.64-.54,1.28-1.05,2.43-1.39,4.59-2.08.1-.03.2-.07.3-.1.24-.08.47.16.37.4-.3.76-.37,1.5-.35,2.12,0,.09,0,.17.01.25.01.16.14.28.3.28h.21c.18,0,.31-.15.3-.33,0-.08-.01-.16-.01-.24-.06-1.56.59-2.83,1.9-3.78,0,0,.01,0,.02-.01,1.04-.66,1.98-1.48,2.72-2.47.34-.45.53-.73,1.14-.78.9-.07,1.45.56,2.07,1.09.72.63,1.54,1.14,2.39,1.58,0,0,.02.01.03.02,1.26.79,1.79,2.09,1.58,3.86-.03.24-.07.47-.11.69-.04.19.1.36.29.36h.21c.14,0,.27-.1.3-.24.05-.22.08-.46.11-.7.1-.89.04-1.69-.18-2.39-.08-.26.2-.48.43-.35,1.54.86,2.8,2.05,3.76,3.55.06.09.15.14.25.14h.25c.24,0,.38-.26.26-.46-.58-.92-1.41-1.95-2.56-2.88-.24-.19-.07-.52.23-.53.67-.03,1.25-.03,1.83.06.31.05.77-.29.27-.55-.46-.25-1.11-.2-1.61-.26-1.97-.23-4-.68-5.82-1.51-.01,0-.02-.01-.03-.02-.99-.61-1.68-1.23-2.17-1.8.07.06.14.12.21.17,1.09.87,2.53,1.3,4.3,1.3.36,0,.83.02,1.22.03,1.22.02,1.99.08,3.31.24.42.05,3.05.69,3.81.51.01,0,0-.03,0-.04Z"/>
      <g>
        <g>
          <path class="cls-3" d="m24.87,61.2c-.07,0-.15-.01-.22-.03-2.25-.7-3.82-2.97-3.82-5.53v-4.19c0-.2.16-.37.36-.37h2.64c.16-.01.3-.15.3-.31v-24.05c0-.4.28-.65.73-.65.55,0,.75.35.75.65v24.05c0,.17.13.3.3.3h2.66c.2.01.36.18.36.38v4.19c0,2.56-1.57,4.84-3.82,5.53-.07.02-.15.03-.22.03Z"/>
          <path class="cls-6" d="m24.86,26.29c.44,0,.52.27.52.42v24.05c0,.29.24.53.53.53h2.66c.07.01.13.07.13.15v4.19c0,2.48-1.5,4.65-3.66,5.31-.05.02-.1.02-.15.02s-.1,0-.15-.02c-2.16-.67-3.66-2.84-3.66-5.31v-4.19c0-.08.06-.14.13-.14h2.64c.29-.01.53-.25.53-.54v-24.05c0-.15.06-.42.5-.42m0-.46c-.58,0-.95.34-.95.88v24.05s-.04.07-.08.07h-2.64c-.32.01-.59.28-.59.61v4.19c0,2.66,1.64,5.03,3.98,5.75.09.03.19.04.29.04s.19-.01.29-.04c2.35-.73,3.98-3.09,3.98-5.75v-4.19c0-.33-.26-.6-.59-.6h-2.65s-.07-.04-.07-.08v-24.05c0-.44-.3-.88-.97-.88h0Z"/>
        </g>
        <line class="cls-2" x1="24.12" y1="55.54" x2="24.12" y2="45.12"/>
      </g>
      <path class="cls-1" d="m31.02,53.83c.15,1.29-1.02,2.51-.74,3.79.15.69.69,1.21,1.06,1.8.93,1.48.74,3.57-.43,4.86"/>
      <path class="cls-1" d="m15.66,64.07c-.29-.99.31-2.82,1.03-3.55s1.72-1.13,2.73-1.31"/>
      <path class="cls-1" d="m31.5,59.66c.52.47,1.13.82,1.72,1.19s1.17.78,1.6,1.34.68,1.27.55,1.95"/>
      <path class="cls-1" d="m30.97,54.07c-.33.55-.18,1.3.22,1.81s.98.84,1.56,1.13,1.18.56,1.66.99.82,1.09.69,1.72"/>
      <path class="cls-1" d="m36.25,47.9c1.12.23,2.12,1.01,2.62,2.04"/>
      <path class="cls-1" d="m42.8,54.27c.24.81.35,1.66.31,2.51"/>
      <path class="cls-1" d="m3.03,60.66c.62-.54,1.5-.76,2.31-.58"/>
      <path class="cls-1" d="m16.98,60.26c-.14.74-.01,1.52.35,2.18s.96,1.18,1.66,1.45"/>
      <path class="cls-1" d="m18.43,51.05c-1.58-.02-3.92,1.3-4.28,2.85-.16.67-.11,1.39-.29,2.06s-.68,1.34-1.37,1.38"/>
      <path class="cls-1" d="m30.65,58.54c.22.61.11,1.31-.19,1.88s-1.08,1.52-2.31,1.72"/>
      <g>
        <path class="cls-3" d="m38.62,36.63l1-.73c.05-.04.12-.03.16.02l2.29,2.79c.08.1-.04.24-.15.17l-3.29-2.06c-.07-.04-.07-.15,0-.19Z"/>
        <path class="cls-3" d="m27.29,39.02l2.47-1.79s.08-.03.11,0l.62.37,1.18.71.62.37c.08.05.54.26.49.37-.06.13-.87-.21-1-.25l-.56-.18c-.09-.03-.18.07-.12.16l.5.78c.06.09-.05.21-.14.15l-1.28-.81c-.07-.04-.16,0-.16.09l.02.9c0,.1-.12.15-.18.07l-.93-1.05s-.07-.04-.1-.03l-1.45.34c-.11.03-.18-.12-.09-.19Z"/>
        <path class="cls-3" d="m6.31,34.01l3.54,2.7c.06.05.06.14,0,.18l-2.36,1.57c-.1.06-.21-.05-.15-.15l.79-1.34c.03-.06.01-.13-.05-.15l-.92-.43s-.09-.01-.12.02l-1.83,1.62c-.08.07-.2,0-.18-.1l.33-1.61c.02-.09-.08-.16-.16-.12l-2.59,1.44c-.11.06-.22-.09-.13-.17l3.68-3.45s.1-.04.14,0Z"/>
        <path class="cls-3" d="m12.04,36.9l3.17,2.28c.08.06,0,.18-.08.14l-2.8-1.21c-.08-.03-.15.06-.09.12l1.19,1.5c.05.07-.02.16-.1.12l-2.71-1.3s-.04-.01-.06,0c-.33.1-.67.2-1,.3-.09.03-.6.24-.65.1-.04-.11.22-.21.28-.25l.41-.27.91-.6,1.44-.94s.06-.02.09,0Z"/>
        <path class="cls-3" d="m21.58,37.35c-.06-.05-.13-.1-.2-.15-.32-.22-.64-.44-.96-.66-.62-.42-1.24-.82-1.87-1.24-.03-.02-.06-.02-.09,0l-2.82,2.04c-.07.05-.02.16.06.14l1.9-.45s.07,0,.09.04l1.22,2.43c.04.07.15.05.15-.04l-.04-1.75c0-.06.07-.1.12-.06l1.76,1.28c.07.05.16-.03.11-.1l-.92-1.39c-.04-.06.03-.14.1-.11l.99.46.8.37.36.17c.05.02.1.05.15.07.03.02.11.04.14,0,.04-.05-.06-.12-.1-.15l-.36-.34c-.2-.19-.39-.39-.61-.56Z"/>
        <path class="cls-3" d="m40.99,39.49c.08.02.12-.08.06-.12l-3.22-2.09-1.57-.93s-.06-.01-.08,0l-.61.52-1.34,1.22s-.02.1.03.12l1.09.27s.02,0,.03.02l1.61,1.7s.13,0,.12-.06l-.36-1.82h.03s1.02,1.18,1.02,1.18c0,0,.02.02.03.02l2.76.85c.07.02.12-.07.06-.12l-1.35-1.09c-.06-.05-.01-.14.06-.12l1.64.46Z"/>
        <path class="cls-3" d="m43.02,38.99l-1.42-1.8c-.08-.1.04-.24.15-.17l2.8,1.76c.1.06.06.21-.06.22l-1.38.03s-.07-.02-.09-.04Z"/>
        <path class="cls-3" d="m22.64,36.18c.34.3.67.61.98.93-.5-.11-.99-.22-1.49-.32-.27-.06-.38-.1-.11-.28.2-.12.4-.24.62-.33Z"/>
      </g>
    </g>
  </g>
</svg>