<?xml version="1.0" encoding="UTF-8"?>
<svg id="Layer_1" data-name="Layer 1" xmlns="http://www.w3.org/2000/svg" viewBox="0 0 589.93 410.37">
  <defs>
    <style>
      .cls-1 {
        fill: #00502f;
      }

      .cls-2 {
        fill: #5c873b;
      }
    </style>
  </defs>
  <g>
    <path class="cls-2" d="m162.98,85.95s1.02-11.19,11.46-18.72c10.44-7.53,26-18.03,31.93-23.83,5.94-5.8,9.06-12.5,16.63-12.79,7.57-.29,12.32-3.52,20.03-10.12,7.7-6.6,14.19-18.94,23.5-19.49s22.75,15.35,28.92,21.34c6.17,5.99,8.89,8.53,8.89,8.53,0,0,2.95-6.41,10.6-13.72,7.65-7.31,10.06-16.33,28.65,2.07,18.59,18.39,40.62,24.33,50.93,37.25,10.32,12.92,20.39,29.12,20.39,29.12,0,0-10.6,8.16-27.03,23.97-16.43,15.81-29.57,38.66-54.94,9.31l-11.97-12.28s-15.3,12.73-21.94,17.8c-6.65,5.08-23.38,24.83-56.57-2.7l-13.82-12.13s-11.02,13.6-24.75,10.66c-13.73-2.94-20.81-12.67-25.32-19.74s-15.58-14.53-15.58-14.53Z"/>
    <path class="cls-1" d="m274.28,137.09c-8.51,0-19.2-3.62-32.47-14.63l-13.08-11.48c-2.66,2.95-12.69,12.87-25.05,10.23-13.34-2.86-20.61-11.81-25.96-20.18-4.35-6.82-15.19-14.17-15.3-14.24l-.49-.33.05-.59c.04-.48,1.18-11.73,11.87-19.44,2.44-1.76,5.16-3.68,7.97-5.67,9.07-6.41,19.35-13.68,23.85-18.06,1.54-1.51,2.89-3.08,4.2-4.6,3.64-4.24,7.09-8.24,13.09-8.47,7.1-.27,11.54-3.13,19.41-9.88,2.42-2.08,4.79-4.82,7.09-7.46C254.51,6.44,259.73.41,266.47.01c8.24-.44,19.01,10.65,26.13,18.02,1.37,1.41,2.54,2.63,3.54,3.6,4.06,3.94,6.64,6.4,7.91,7.61,1.24-2.23,4.37-7.25,10.19-12.81,1.06-1.01,2.02-2.06,2.95-3.08,2.76-3.02,5.37-5.87,9.29-5.97,4.41-.12,9.91,3.32,17.8,11.13,9.4,9.3,19.77,15.44,28.93,20.86,9.08,5.37,16.92,10.01,22.08,16.49,10.23,12.82,20.35,29.05,20.45,29.21l.48.77-.72.55c-.11.08-10.75,8.31-26.95,23.89-2.27,2.18-4.51,4.54-6.67,6.81-8.29,8.71-16.13,16.95-26.08,16.95-.14,0-.29,0-.43,0-7.32-.17-14.91-4.92-23.2-14.51l-11.29-11.58c-3.1,2.57-15.5,12.83-21.27,17.24-.58.45-1.25,1.01-2.03,1.67-4.61,3.91-12.07,10.22-23.31,10.22Zm-45.77-28.96l14.6,12.82c29.51,24.47,45.5,10.91,53.19,4.4.8-.68,1.49-1.26,2.11-1.74,6.56-5,21.76-17.65,21.91-17.78l.71-.59,12.62,12.94c7.94,9.18,15.05,13.7,21.77,13.86,9.23.23,16.92-7.82,25.02-16.33,2.18-2.29,4.43-4.66,6.74-6.87,13.9-13.37,23.74-21.37,26.4-23.47-2.12-3.35-10.94-17.11-19.84-28.26-4.94-6.19-12.63-10.74-21.54-16.01-9.26-5.48-19.75-11.69-29.32-21.16-7.37-7.29-12.52-10.67-16.34-10.55-3.07.08-5.19,2.39-7.87,5.32-.95,1.04-1.94,2.12-3.04,3.18-7.41,7.08-10.35,13.36-10.38,13.42l-.58,1.26-1.01-.94s-2.8-2.62-8.9-8.54c-1.02-.99-2.21-2.22-3.59-3.65-6.45-6.67-17.24-17.83-24.57-17.41-5.89.34-10.83,6.05-15.61,11.57-2.34,2.7-4.76,5.5-7.3,7.67-8.09,6.93-12.99,10.07-20.64,10.36-5.13.19-8.01,3.54-11.65,7.77-1.34,1.55-2.72,3.16-4.32,4.73-4.61,4.5-14.96,11.81-24.09,18.27-2.81,1.98-5.52,3.9-7.96,5.66-8.61,6.21-10.59,15.12-10.97,17.43,2.28,1.59,11.29,8.1,15.35,14.47,5.13,8.03,12.07,16.6,24.69,19.3,12.98,2.78,23.65-10.18,23.76-10.31l.65-.81Z"/>
  </g>
  <path class="cls-1" d="m239.58,68.5c-2.67-2.78-5.5-5.36-8.65-7.39-1.57-1.02-3.22-1.88-4.94-2.53-1.71-.68-3.5-1.12-5.32-1.3-3.63-.44-7.36.16-10.86,1.44-3.5,1.3-6.84,3.19-9.89,5.53,2.49-2.96,5.72-5.33,9.3-6.98,1.79-.84,3.71-1.42,5.68-1.78,1.97-.34,4-.4,6-.19,4.01.45,7.82,2.14,10.93,4.54,3.15,2.38,5.74,5.37,7.76,8.66Z"/>
  <path class="cls-1" d="m248.55,46.09c5.14-.92,10.43-.99,15.66-.51,2.62.23,5.22.66,7.8,1.22,2.57.59,5.1,1.36,7.58,2.29,4.93,1.91,9.63,4.56,13.57,8.11,4,3.47,7.16,7.85,9.34,12.58-2.9-4.33-6.3-8.25-10.34-11.38-.98-.82-2.06-1.51-3.09-2.25-1.08-.68-2.14-1.38-3.28-1.97-2.22-1.24-4.53-2.34-6.93-3.22-4.76-1.85-9.77-3.05-14.85-3.83-5.09-.76-10.26-1.13-15.47-1.03Z"/>
  <path class="cls-1" d="m202.82,95.63c.32-2.85,1.45-5.6,3.05-8.04,1.6-2.44,3.69-4.59,6.15-6.22,2.49-1.55,5.19-2.81,8.05-3.36.35-.08.7-.18,1.06-.24l1.08-.13,2.15-.22c1.44-.03,2.87.04,4.29.14-1.4.34-2.79.53-4.15.83l-2.02.54-1.01.25c-.33.1-.65.23-.98.34-.65.24-1.29.47-1.94.68-.64.25-1.24.57-1.86.85l-.93.42-.88.51c-.58.36-1.19.65-1.74,1.06l-1.66,1.17c-.53.43-1.01.9-1.54,1.33-1.01.91-1.93,1.91-2.8,2.97-1.73,2.12-3.19,4.5-4.3,7.12Z"/>
  <path class="cls-1" d="m259.79,109.03c.1-3.11.99-6.19,2.37-9.02,1.37-2.84,3.29-5.45,5.65-7.59,2.39-2.08,5.06-3.92,8.05-4.96,1.43-.68,3.01-.93,4.5-1.35,1.53-.29,3.1-.42,4.63-.54-1.46.56-2.94.94-4.36,1.49l-2.1.87c-.34.15-.7.26-1.04.43l-1,.53-1.99,1.04-1.87,1.22c-.64.37-1.21.86-1.79,1.31-.57.47-1.18.89-1.69,1.44-2.23,1.96-4.07,4.32-5.64,6.86-1.56,2.56-2.82,5.32-3.73,8.28Z"/>
  <path class="cls-1" d="m354.94,95.13c-.51-2.13-.31-4.42.38-6.54.67-2.14,1.89-4.12,3.44-5.76,1.63-1.57,3.5-2.87,5.55-3.7,1-.47,2.09-.7,3.13-1.02,1.08-.19,2.16-.35,3.24-.43-.97.51-1.96.92-2.91,1.35l-1.39.74c-.46.25-.94.44-1.36.75-.43.28-.87.56-1.31.82-.45.24-.82.61-1.23.9-.85.57-1.54,1.3-2.28,1.98-1.4,1.44-2.54,3.11-3.43,4.94-.88,1.84-1.5,3.83-1.83,5.97Z"/>
  <path class="cls-1" d="m306.31,35.42c3.88,3.22,7.89,6.21,12.02,9.03,4.14,2.79,8.4,5.39,12.8,7.72,4.36,2.4,8.95,4.35,13.6,6.1l3.53,1.24c1.19.37,2.4.68,3.6,1.04l1.8.53,1.83.4c1.22.27,2.45.55,3.68.85-1.25-.09-2.51-.18-3.77-.3l-1.89-.19-1.87-.33c-1.24-.24-2.49-.46-3.73-.73l-3.67-1.02c-4.85-1.48-9.58-3.41-14.05-5.82-4.47-2.4-8.76-5.13-12.77-8.22-4-3.09-7.8-6.47-11.11-10.29Z"/>
  <path class="cls-1" d="m413.82,85.15c-5.24-1.14-10.42-2.65-15.5-4.41-5.09-1.74-10.1-3.69-15.14-5.4l-3.76-1.32c-1.26-.42-2.53-.8-3.8-1.17-1.28-.31-2.56-.68-3.85-.94-1.3-.22-2.58-.55-3.89-.69-5.21-.76-10.52-.71-15.76-.06-2.62.33-5.19.84-7.67,1.65-2.48.79-4.93,1.89-7.48,2.82-5.11,1.91-10.44,3.07-15.76,3.94-10.65,1.77-21.47,2.34-32.24,2.07-5.39-.15-10.77-.55-16.13-1.19-5.35-.65-10.72-1.67-15.9-3.32-2.59-.81-5.1-1.75-7.63-2.48-2.52-.74-5.09-1.27-7.71-1.54-1.3-.17-2.63-.23-3.94-.33-1.33-.03-2.65-.11-3.98-.11-2.66,0-5.32.03-7.97.19-10.64.55-21.14,2.58-31.53,5.11-5.23,1.12-10.48,2.27-15.67,3.54-5.2,1.29-10.37,2.7-15.51,4.24,10.01-3.88,20.36-6.85,30.71-9.72,10.43-2.54,21.08-4.61,31.89-5.17,2.7-.17,5.4-.21,8.1-.2,1.35,0,2.71.08,4.06.11,1.36.11,2.71.16,4.07.34,2.71.28,5.42.84,8.04,1.61,2.62.77,5.14,1.71,7.67,2.49,5.05,1.61,10.26,2.6,15.54,3.24,5.28.63,10.61,1.02,15.94,1.18,10.66.28,21.36-.29,31.86-2.04,5.25-.86,10.45-2,15.4-3.85,2.48-.9,4.94-2.01,7.56-2.85,2.62-.85,5.33-1.39,8.03-1.73,5.4-.67,10.9-.72,16.3.07,5.41.77,10.66,2.33,15.7,4.22,5.01,2.01,9.87,4.26,14.82,6.29,4.95,2.03,9.98,3.87,15.12,5.41Z"/>
  <path class="cls-1" d="m414.9,85.59s28.56,9.4,32.1-1.77l-2.69-2.26s0,9.48-29.41,4.03Z"/>
  <g>
    <path class="cls-1" d="m11.16,386.1l-5.07.14c-1.97.07-2.79.24-3.3.99-.34.51-.51.92-.58,1.19-.07.27-.17.41-.37.41-.24,0-.31-.17-.31-.54,0-.54.65-3.64.71-3.91.1-.44.2-.65.41-.65.27,0,.61.34,1.46.41.99.1,2.28.17,3.4.17h13.46c1.09,0,1.84-.1,2.35-.17.51-.1.78-.17.92-.17.24,0,.27.2.27.71,0,.71-.1,3.06-.1,3.94-.03.34-.1.54-.31.54-.27,0-.34-.17-.37-.68l-.03-.37c-.07-.88-.99-1.84-4.01-1.9l-4.28-.1v13.94c0,3.13,0,5.81.17,7.28.1.95.31,1.7,1.33,1.84.48.07,1.22.14,1.73.14.37,0,.54.1.54.27,0,.24-.27.34-.65.34-2.24,0-4.39-.1-5.34-.1-.78,0-2.92.1-4.28.1-.44,0-.68-.1-.68-.34,0-.17.14-.27.54-.27.51,0,.92-.07,1.22-.14.68-.14.88-.88.99-1.87.17-1.43.17-4.11.17-7.24v-13.94Z"/>
    <path class="cls-1" d="m51.92,397.45c.07,0,.17-.03.17-.2v-.61c0-4.39-.03-5.44-.07-6.36-.07-.99-.34-1.29-1.29-1.56-.24-.07-.75-.1-1.16-.1-.34,0-.51-.1-.51-.31s.2-.27.65-.27c1.6,0,3.71.07,4.49.07.71,0,2.69-.07,3.84-.07.44,0,.65.07.65.27s-.2.31-.54.31c-.24,0-.51.03-.88.1-.78.14-1.02.54-1.09,1.56-.07.92-.07,1.73-.07,6.12v5.1c0,2.65,0,4.93.14,6.19.1.82.27,1.36,1.19,1.5.41.07,1.05.1,1.53.1.31,0,.48.17.48.31,0,.2-.24.31-.61.31-1.94,0-3.91-.1-4.73-.1-.68,0-2.79.1-3.94.1-.41,0-.65-.1-.65-.31,0-.14.14-.31.48-.31.48,0,.82-.03,1.09-.1.61-.14.78-.68.88-1.53.14-1.22.14-3.43.14-6.09v-2.21c0-.1-.1-.17-.17-.17h-11.29c-.1,0-.2.03-.2.17v2.21c0,2.65.03,4.86.17,6.12.1.82.27,1.36,1.16,1.5.41.07,1.09.1,1.53.1.34,0,.48.17.48.31,0,.2-.24.31-.61.31-1.94,0-4.01-.1-4.86-.1-.68,0-2.65.1-3.84.1-.37,0-.58-.1-.58-.31,0-.14.1-.31.48-.31.44,0,.78-.03,1.05-.1.61-.14.78-.68.88-1.53.14-1.22.14-3.5.14-6.15v-5.1c0-4.39,0-5.2-.03-6.12-.07-.99-.34-1.29-1.29-1.56-.24-.07-.75-.1-1.19-.1-.31,0-.51-.1-.51-.31s.24-.27.65-.27c1.6,0,3.57.07,4.39.07.71,0,2.79-.07,3.98-.07.41,0,.61.07.61.27s-.17.31-.54.31c-.24,0-.51.03-.85.1-.82.14-1.05.54-1.12,1.56-.07.92-.07,1.97-.07,6.36v.61c0,.17.1.2.2.2h11.29Z"/>
    <path class="cls-1" d="m72.22,396.4c0-4.39,0-5.2-.03-6.12-.07-.99-.34-1.29-1.29-1.56-.24-.07-.75-.1-1.19-.1-.31,0-.51-.1-.51-.31s.24-.27.68-.27c1.56,0,3.47.07,4.32.07.95,0,7.58.03,8.16,0,.54-.03,1.02-.14,1.26-.17.17-.03.34-.14.48-.14.17,0,.2.14.2.27,0,.2-.17.54-.24,1.87-.03.31-.1,1.56-.17,1.9-.03.14-.1.48-.34.48-.2,0-.24-.14-.24-.37,0-.2-.03-.71-.2-1.05-.24-.51-.48-.92-1.97-1.05-.51-.07-4.08-.14-4.69-.14-.14,0-.2.1-.2.27v7.14c0,.17.03.31.2.31.68,0,4.56,0,5.24-.07.71-.07,1.16-.14,1.43-.44.24-.2.34-.37.48-.37s.24.14.24.31-.07.65-.24,2.11c-.07.58-.14,1.73-.14,1.94,0,.24-.03.65-.31.65-.2,0-.27-.1-.27-.24-.03-.31-.03-.68-.1-1.05-.17-.58-.54-1.02-1.67-1.12-.54-.07-3.94-.14-4.69-.14-.14,0-.17.14-.17.31v2.31c0,.99-.03,3.43,0,4.28.07,1.97.99,2.41,4.05,2.41.78,0,2.04-.03,2.82-.37.75-.34,1.09-.95,1.29-2.14.07-.31.14-.44.34-.44.24,0,.27.37.27.68,0,.65-.24,2.62-.41,3.2-.2.75-.48.75-1.6.75-2.24,0-4.05-.03-5.51-.1-1.46-.03-2.58-.07-3.47-.07-.34,0-.99.03-1.7.03-.71.03-1.46.07-2.07.07-.37,0-.58-.1-.58-.31,0-.14.1-.31.48-.31.44,0,.78-.03,1.05-.1.61-.14.78-.68.88-1.53.14-1.22.14-3.5.14-6.15v-5.1Z"/>
    <path class="cls-1" d="m113.87,394.05c0-5.17,0-6.12-.07-7.21-.07-1.16-.34-1.7-1.46-1.94-.27-.07-.85-.1-1.33-.1-.37,0-.58-.07-.58-.31s.24-.31.75-.31c1.8,0,3.94.1,4.96.1.82,0,2.96-.1,4.18-.1.51,0,.75.07.75.31s-.2.31-.54.31c-.37,0-.58.03-.99.1-.92.17-1.19.75-1.26,1.94-.07,1.09-.07,2.04-.07,7.21v4.76c0,4.93.99,7,2.65,8.36,1.53,1.26,3.09,1.39,4.25,1.39,1.5,0,3.33-.48,4.69-1.84,1.87-1.87,1.97-4.93,1.97-8.43v-4.25c0-5.17,0-6.12-.07-7.21-.07-1.16-.34-1.7-1.46-1.94-.27-.07-.85-.1-1.22-.1s-.58-.07-.58-.31.24-.31.71-.31c1.73,0,3.88.1,3.91.1.41,0,2.55-.1,3.88-.1.48,0,.71.07.71.31s-.2.31-.61.31c-.37,0-.58.03-.99.1-.92.17-1.19.75-1.26,1.94-.07,1.09-.07,2.04-.07,7.21v3.64c0,3.77-.37,7.79-3.23,10.23-2.41,2.07-4.86,2.45-7.07,2.45-1.8,0-5.07-.1-7.55-2.35-1.73-1.56-3.03-4.08-3.03-9.01v-4.96Z"/>
    <path class="cls-1" d="m150.45,405.95c.07,2.24.44,2.92,1.02,3.13.51.17,1.09.2,1.56.2.34,0,.51.14.51.31,0,.24-.27.31-.68.31-1.94,0-3.33-.1-3.88-.1-.27,0-1.7.1-3.23.1-.41,0-.68-.03-.68-.31,0-.17.2-.31.48-.31.41,0,.95-.03,1.36-.14.78-.2.88-.99.92-3.5l.27-17.13c0-.58.2-.99.51-.99.37,0,.78.44,1.29.95.37.37,4.86,4.96,9.21,9.21,2.04,2.01,6.02,6.08,6.46,6.49h.14l-.31-12.85c-.03-1.77-.31-2.28-1.02-2.55-.44-.17-1.16-.17-1.56-.17-.37,0-.48-.14-.48-.31,0-.24.31-.27.75-.27,1.56,0,3.16.07,3.81.07.34,0,1.46-.07,2.92-.07.41,0,.68.03.68.27,0,.17-.17.31-.51.31-.31,0-.54,0-.92.1-.82.24-1.05.75-1.09,2.38l-.34,18.22c0,.65-.24.92-.48.92-.51,0-.92-.31-1.22-.61-1.87-1.73-5.61-5.3-8.74-8.33-3.26-3.13-6.43-6.63-7-7.14h-.1l.34,11.8Z"/>
    <path class="cls-1" d="m183.5,396.4c0-4.39,0-5.2-.03-6.12-.07-.99-.37-1.33-1.02-1.53-.34-.1-.71-.14-1.09-.14-.31,0-.48-.07-.48-.34,0-.17.24-.24.71-.24,1.12,0,3.16.07,4.01.07.75,0,2.69-.07,3.84-.07.37,0,.61.07.61.24,0,.27-.17.34-.48.34s-.54.03-.88.1c-.82.14-1.05.54-1.12,1.56-.07.92-.07,1.73-.07,6.12v5.1c0,2.79,0,5.1.14,6.32.1.78.31,1.22,1.19,1.36.41.07,1.09.1,1.53.1.34,0,.48.17.48.31,0,.2-.24.31-.58.31-1.97,0-4.01-.1-4.83-.1-.68,0-2.72.1-3.91.1-.37,0-.58-.1-.58-.31,0-.14.1-.31.48-.31.44,0,.78-.03,1.05-.1.61-.14.78-.54.88-1.39.14-1.19.14-3.5.14-6.29v-5.1Z"/>
    <path class="cls-1" d="m200.84,390.86c-.68-1.6-1.12-1.87-2.21-2.14-.44-.1-.92-.1-1.16-.1-.27,0-.34-.14-.34-.31,0-.24.31-.27.75-.27,1.6,0,3.3.07,4.35.07.75,0,2.31-.07,3.81-.07.37,0,.71.07.71.27s-.2.31-.48.31c-.48,0-.92.03-1.16.2-.2.14-.31.31-.31.58,0,.37.27,1.16.68,2.18l5.03,12.95h.1c1.29-2.99,5.13-12.31,5.85-14.21.14-.37.27-.82.27-1.05,0-.31-.14-.41-.41-.51-.34-.1-.82-.14-1.19-.14-.27,0-.51-.1-.51-.31s.27-.27.85-.27c1.5,0,2.82.07,3.2.07.51,0,1.9-.07,2.82-.07.37,0,.61.07.61.27s-.17.31-.48.31-.95-.03-1.46.34c-.37.27-.78.71-1.56,2.55-1.19,2.72-1.97,4.28-3.6,7.82-1.9,4.21-3.3,7.38-3.98,8.84-.75,1.67-1.02,2.11-1.43,2.11s-.65-.37-1.22-1.73l-7.55-17.68Z"/>
    <path class="cls-1" d="m231.65,396.4c0-4.39,0-5.2-.03-6.12-.07-.99-.34-1.29-1.29-1.56-.24-.07-.75-.1-1.19-.1-.31,0-.51-.1-.51-.31s.24-.27.68-.27c1.56,0,3.47.07,4.32.07.95,0,7.58.03,8.16,0,.54-.03,1.02-.14,1.26-.17.17-.03.34-.14.48-.14.17,0,.2.14.2.27,0,.2-.17.54-.24,1.87-.03.31-.1,1.56-.17,1.9-.03.14-.1.48-.34.48-.2,0-.24-.14-.24-.37,0-.2-.03-.71-.2-1.05-.24-.51-.48-.92-1.97-1.05-.51-.07-4.08-.14-4.69-.14-.14,0-.2.1-.2.27v7.14c0,.17.03.31.2.31.68,0,4.56,0,5.24-.07.71-.07,1.16-.14,1.43-.44.24-.2.34-.37.48-.37s.24.14.24.31-.07.65-.24,2.11c-.07.58-.14,1.73-.14,1.94,0,.24-.03.65-.31.65-.2,0-.27-.1-.27-.24-.03-.31-.03-.68-.1-1.05-.17-.58-.54-1.02-1.67-1.12-.54-.07-3.94-.14-4.69-.14-.14,0-.17.14-.17.31v2.31c0,.99-.03,3.43,0,4.28.07,1.97.99,2.41,4.05,2.41.78,0,2.04-.03,2.82-.37.75-.34,1.09-.95,1.29-2.14.07-.31.14-.44.34-.44.24,0,.27.37.27.68,0,.65-.24,2.62-.41,3.2-.2.75-.48.75-1.6.75-2.24,0-4.05-.03-5.51-.1-1.46-.03-2.58-.07-3.47-.07-.34,0-.99.03-1.7.03-.71.03-1.46.07-2.07.07-.37,0-.58-.1-.58-.31,0-.14.1-.31.48-.31.44,0,.78-.03,1.05-.1.61-.14.78-.68.88-1.53.14-1.22.14-3.5.14-6.15v-5.1Z"/>
    <path class="cls-1" d="m256.87,396.4c0-4.39,0-5.2-.03-6.12-.07-.99-.34-1.29-1.29-1.56-.24-.07-.75-.1-1.19-.1-.31,0-.51-.1-.51-.31s.24-.27.68-.27c1.56,0,3.47.07,4.08.07,1.02,0,3.74-.07,4.66-.07,1.9,0,4.08.17,5.68,1.22.85.58,2.11,2.04,2.11,3.98,0,2.14-1.22,4.05-4.15,6.39,2.65,3.26,4.76,5.88,6.56,7.68,1.67,1.67,2.72,1.8,3.2,1.9.31.07.48.07.71.07s.37.17.37.31c0,.24-.2.31-.58.31h-2.86c-1.67,0-2.48-.17-3.26-.58-1.29-.65-2.41-2.01-4.08-4.25-1.19-1.56-2.45-3.5-2.82-3.94-.17-.17-.34-.2-.54-.2l-2.69-.07c-.14,0-.24.07-.24.24v.41c0,2.69.03,4.93.17,6.15.1.85.24,1.39,1.16,1.53.44.07,1.09.1,1.46.1.24,0,.37.17.37.31,0,.2-.24.31-.61.31-1.73,0-4.22-.1-4.66-.1-.58,0-2.48.1-3.67.1-.37,0-.58-.1-.58-.31,0-.14.1-.31.48-.31.44,0,.78-.03,1.05-.1.61-.14.78-.68.88-1.53.14-1.22.14-3.5.14-6.15v-5.1Zm3.81,2.24c0,.31.07.41.27.51.65.2,1.53.27,2.28.27,1.19,0,1.6-.1,2.11-.48.92-.65,1.94-1.9,1.94-4.28,0-4.08-2.79-5.13-4.56-5.13-.75,0-1.46.03-1.77.1-.2.07-.27.17-.27.41v8.6Z"/>
    <path class="cls-1" d="m284.38,409.52c-.48-.2-.58-.34-.58-.99,0-1.56.14-3.37.17-3.84,0-.44.14-.75.37-.75.27,0,.31.27.31.48,0,.37.1.99.27,1.5.65,2.14,2.89,2.86,4.76,2.86,2.58,0,4.15-1.63,4.15-3.67,0-1.26-.31-2.52-2.96-4.08l-1.73-1.02c-3.54-2.07-4.69-4.01-4.69-6.56,0-3.54,3.4-5.81,7.55-5.81,1.94,0,3.47.27,4.25.48.27.07.41.17.41.37,0,.37-.1,1.19-.1,3.47,0,.61-.14.92-.37.92-.2,0-.31-.17-.31-.51,0-.27-.14-1.16-.78-1.9-.44-.54-1.39-1.36-3.33-1.36-2.14,0-4.08,1.12-4.08,3.09,0,1.29.48,2.31,3.16,3.81l1.22.68c3.94,2.18,5.17,4.39,5.17,7,0,2.14-.82,3.88-2.99,5.41-1.43,1.02-3.4,1.19-5,1.19-1.73,0-3.57-.17-4.86-.75Z"/>
    <path class="cls-1" d="m310.02,396.4c0-4.39,0-5.2-.03-6.12-.07-.99-.37-1.33-1.02-1.53-.34-.1-.71-.14-1.09-.14-.31,0-.48-.07-.48-.34,0-.17.24-.24.71-.24,1.12,0,3.16.07,4.01.07.75,0,2.69-.07,3.84-.07.37,0,.61.07.61.24,0,.27-.17.34-.48.34s-.54.03-.88.1c-.82.14-1.05.54-1.12,1.56-.07.92-.07,1.73-.07,6.12v5.1c0,2.79,0,5.1.14,6.32.1.78.31,1.22,1.19,1.36.41.07,1.09.1,1.53.1.34,0,.48.17.48.31,0,.2-.24.31-.58.31-1.97,0-4.01-.1-4.83-.1-.68,0-2.72.1-3.91.1-.37,0-.58-.1-.58-.31,0-.14.1-.31.48-.31.44,0,.78-.03,1.05-.1.61-.14.78-.54.88-1.39.14-1.19.14-3.5.14-6.29v-5.1Z"/>
    <path class="cls-1" d="m334.15,389.8l-4.45.1c-1.73.03-2.45.24-2.89.88-.31.41-.44.78-.51.99-.07.24-.14.37-.34.37s-.27-.17-.27-.48c0-.48.58-3.26.65-3.5.07-.37.17-.54.34-.54.24,0,.54.24,1.29.34.88.1,2.01.14,2.99.14h12.14c.95,0,1.6-.07,2.04-.14.48-.07.71-.14.82-.14.2,0,.24.17.24.61,0,.61-.07,2.75-.07,3.5-.03.31-.1.48-.27.48-.24,0-.31-.14-.34-.58l-.03-.31c-.07-.75-.85-1.63-3.54-1.67l-3.77-.07v11.7c0,2.65.03,4.93.17,6.19.1.82.27,1.36,1.16,1.5.41.07,1.09.1,1.53.1.34,0,.48.17.48.31,0,.2-.24.31-.58.31-1.97,0-3.98-.1-4.83-.1-.68,0-2.72.1-3.91.1-.37,0-.58-.1-.58-.31,0-.14.1-.31.48-.31.44,0,.82-.03,1.05-.1.61-.14.78-.68.88-1.53.14-1.22.14-3.5.14-6.15v-11.7Z"/>
    <path class="cls-1" d="m361.42,402.38c0-1.56-.27-2.18-.68-3.03-.2-.44-4.28-6.8-5.34-8.33-.75-1.05-1.36-1.73-1.94-2.04-.37-.2-.88-.37-1.26-.37-.24,0-.44-.1-.44-.31s.2-.27.58-.27c.51,0,2.75.07,3.74.07.65,0,2.04-.07,3.4-.07.27,0,.44.07.44.27,0,.24-.2.24-.68.37-.24.07-.41.2-.41.44s.14.58.37.99c.54.88,4.45,7.65,4.96,8.46.37-.68,4.01-6.87,4.45-7.75.31-.65.44-1.16.44-1.53,0-.27-.14-.54-.65-.65-.27-.07-.54-.1-.54-.34,0-.2.17-.27.51-.27.99,0,2.04.07,2.92.07.65,0,2.62-.07,3.2-.07.34,0,.54.07.54.24,0,.2-.24.34-.58.34-.31,0-.85.14-1.29.34-.65.31-.92.58-1.56,1.36-.99,1.16-5.27,8.02-5.81,9.25-.44,1.05-.37,1.94-.37,2.89v2.31c0,.48,0,1.67.07,2.89.07.85.34,1.39,1.22,1.53.44.07,1.09.1,1.5.1.34,0,.51.17.51.31,0,.2-.24.31-.65.31-1.87,0-3.88-.1-4.69-.1-.75,0-2.75.1-3.88.1-.41,0-.65-.07-.65-.31,0-.14.14-.31.48-.31.41,0,.78-.03,1.05-.1.61-.14.85-.68.92-1.53.1-1.22.1-2.41.1-2.89v-2.38Z"/>
    <path class="cls-1" d="m397.84,398.95c0-4.93,3.47-11.32,12.54-11.32,7.55,0,12.24,4.18,12.24,10.81s-4.83,11.83-12.54,11.83c-8.7,0-12.24-6.19-12.24-11.32Zm20.33.54c0-6.39-3.84-10.33-8.67-10.33-3.33,0-7.24,1.77-7.24,8.91,0,5.95,3.4,10.64,9.04,10.64,2.11,0,6.87-.99,6.87-9.21Z"/>
    <path class="cls-1" d="m438.53,401.6c0,2.79.03,4.83.17,6.05.1.85.31,1.39,1.19,1.53.41.07,1.05.1,1.46.1.37,0,.51.17.51.31,0,.2-.2.31-.65.31-1.9,0-4.01-.1-4.79-.1s-2.69.1-3.81.1c-.41,0-.61-.07-.61-.31,0-.14.1-.31.44-.31.44,0,.78-.03,1.05-.1.61-.14.78-.68.88-1.53.14-1.22.14-3.37.14-6.15v-5.1c0-4.39,0-5.2-.03-6.12-.07-.99-.34-1.33-1.29-1.56-.24-.07-.75-.1-1.19-.1-.27,0-.51-.1-.51-.31s.24-.27.71-.27c1.53,0,3.43.07,4.28.07,1.16,0,7.79.03,8.5,0,.54-.03.92-.07,1.22-.14.17-.03.31-.17.48-.17.1,0,.2.14.2.27,0,.2-.14.54-.24,1.29-.03.31-.1,2.01-.14,2.35-.03.24-.1.58-.31.58s-.37-.14-.37-.48c0-.24.03-.68-.17-1.09-.2-.41-.78-.85-1.9-.88l-4.96-.1c-.17,0-.27.07-.27.41v7c0,.17.03.27.2.27l4.18-.03c.51,0,.92,0,1.36-.03.54-.03.99-.14,1.26-.51.17-.17.24-.31.41-.31.1,0,.17.1.17.27s-.14.95-.24,1.87c-.07.58-.1,1.9-.1,2.11,0,.24-.03.65-.34.65-.17,0-.27-.2-.27-.41s-.07-.54-.2-.88c-.14-.41-.51-.99-1.43-1.05-.75-.07-4.28-.1-4.79-.1-.14,0-.2.03-.2.24v2.38Z"/>
    <path class="cls-1" d="m475.86,394.05c0-5.17,0-6.12-.07-7.21-.07-1.16-.34-1.7-1.46-1.94-.27-.07-.85-.1-1.33-.1-.37,0-.58-.07-.58-.31s.24-.31.75-.31c1.8,0,3.94.1,4.96.1.82,0,2.96-.1,4.18-.1.51,0,.75.07.75.31s-.2.31-.54.31c-.37,0-.58.03-.99.1-.92.17-1.19.75-1.26,1.94-.07,1.09-.07,2.04-.07,7.21v4.76c0,4.93.99,7,2.65,8.36,1.53,1.26,3.09,1.39,4.25,1.39,1.5,0,3.33-.48,4.69-1.84,1.87-1.87,1.97-4.93,1.97-8.43v-4.25c0-5.17,0-6.12-.07-7.21-.07-1.16-.34-1.7-1.46-1.94-.27-.07-.85-.1-1.22-.1s-.58-.07-.58-.31.24-.31.71-.31c1.73,0,3.88.1,3.91.1.41,0,2.55-.1,3.88-.1.48,0,.71.07.71.31s-.2.31-.61.31c-.37,0-.58.03-.99.1-.92.17-1.19.75-1.26,1.94-.07,1.09-.07,2.04-.07,7.21v3.64c0,3.77-.37,7.79-3.23,10.23-2.41,2.07-4.86,2.45-7.07,2.45-1.8,0-5.07-.1-7.55-2.35-1.73-1.56-3.03-4.08-3.03-9.01v-4.96Z"/>
    <path class="cls-1" d="m515.92,389.8l-4.45.1c-1.73.03-2.45.24-2.89.88-.31.41-.44.78-.51.99-.07.24-.14.37-.34.37s-.27-.17-.27-.48c0-.48.58-3.26.65-3.5.07-.37.17-.54.34-.54.24,0,.54.24,1.29.34.88.1,2.01.14,2.99.14h12.14c.95,0,1.6-.07,2.04-.14.48-.07.71-.14.82-.14.2,0,.24.17.24.61,0,.61-.07,2.75-.07,3.5-.03.31-.1.48-.27.48-.24,0-.31-.14-.34-.58l-.03-.31c-.07-.75-.85-1.63-3.54-1.67l-3.77-.07v11.7c0,2.65.03,4.93.17,6.19.1.82.27,1.36,1.16,1.5.41.07,1.09.1,1.53.1.34,0,.48.17.48.31,0,.2-.24.31-.58.31-1.97,0-3.98-.1-4.83-.1-.68,0-2.72.1-3.91.1-.37,0-.58-.1-.58-.31,0-.14.1-.31.48-.31.44,0,.82-.03,1.05-.1.61-.14.78-.68.88-1.53.14-1.22.14-3.5.14-6.15v-11.7Z"/>
    <path class="cls-1" d="m539.04,402.62c-.17,0-.2.03-.27.2l-1.6,3.88c-.31.71-.44,1.43-.44,1.77,0,.51.27.82,1.19.82h.44c.37,0,.44.14.44.31,0,.24-.17.31-.48.31-.99,0-2.38-.1-3.33-.1-.31,0-1.9.1-3.47.1-.37,0-.54-.07-.54-.31,0-.17.1-.31.34-.31.27,0,.61-.03.88-.03,1.36-.2,1.87-1.09,2.48-2.55l7.82-18.19c.34-.82.58-1.16.88-1.16.44,0,.58.27.88.92.71,1.6,5.71,13.43,7.62,17.81,1.16,2.62,2.01,2.99,2.55,3.09.44.07.78.1,1.12.1.27,0,.41.1.41.31,0,.24-.17.31-1.29.31-1.05,0-3.23,0-5.75-.07-.54-.03-.88-.03-.88-.24,0-.17.07-.27.37-.31.2-.03.41-.31.27-.65l-2.31-5.81c-.07-.17-.17-.2-.31-.2h-7.04Zm6.39-1.6c.14,0,.17-.07.14-.17l-2.82-7.34c-.03-.1-.07-.27-.14-.27-.1,0-.14.17-.17.27l-2.89,7.31c-.07.14,0,.2.1.2h5.78Z"/>
    <path class="cls-1" d="m581.06,397.45c.07,0,.17-.03.17-.2v-.61c0-4.39-.03-5.44-.07-6.36-.07-.99-.34-1.29-1.29-1.56-.24-.07-.75-.1-1.16-.1-.34,0-.51-.1-.51-.31s.2-.27.65-.27c1.6,0,3.71.07,4.49.07.71,0,2.69-.07,3.84-.07.44,0,.65.07.65.27s-.2.31-.54.31c-.24,0-.51.03-.88.1-.78.14-1.02.54-1.09,1.56-.07.92-.07,1.73-.07,6.12v5.1c0,2.65,0,4.93.14,6.19.1.82.27,1.36,1.19,1.5.41.07,1.05.1,1.53.1.31,0,.48.17.48.31,0,.2-.24.31-.61.31-1.94,0-3.91-.1-4.73-.1-.68,0-2.79.1-3.94.1-.41,0-.65-.1-.65-.31,0-.14.14-.31.48-.31.48,0,.82-.03,1.09-.1.61-.14.78-.68.88-1.53.14-1.22.14-3.43.14-6.09v-2.21c0-.1-.1-.17-.17-.17h-11.29c-.1,0-.2.03-.2.17v2.21c0,2.65.03,4.86.17,6.12.1.82.27,1.36,1.16,1.5.41.07,1.09.1,1.53.1.34,0,.48.17.48.31,0,.2-.24.31-.61.31-1.94,0-4.01-.1-4.86-.1-.68,0-2.65.1-3.84.1-.37,0-.58-.1-.58-.31,0-.14.1-.31.48-.31.44,0,.78-.03,1.05-.1.61-.14.78-.68.88-1.53.14-1.22.14-3.5.14-6.15v-5.1c0-4.39,0-5.2-.03-6.12-.07-.99-.34-1.29-1.29-1.56-.24-.07-.75-.1-1.19-.1-.31,0-.51-.1-.51-.31s.24-.27.65-.27c1.6,0,3.57.07,4.39.07.71,0,2.79-.07,3.98-.07.41,0,.61.07.61.27s-.17.31-.54.31c-.24,0-.51.03-.85.1-.82.14-1.05.54-1.12,1.56-.07.92-.07,1.97-.07,6.36v.61c0,.17.1.2.2.2h11.29Z"/>
  </g>
  <g>
    <path class="cls-1" d="m76.45,238.92h-22.43l-23.29-38.57h-8.18v38.57H2.41v-91.01h30.28c9.08,0,16.37,1.97,21.86,5.92,6.24,4.5,9.36,11.12,9.36,19.85,0,11.77-4.82,19.18-14.47,22.22l27,43.01Zm-32.44-61.74c0-9.05-4.32-13.57-12.95-13.57h-8.5v27.02h9.15c3.92,0,6.99-1.28,9.21-3.85,2.06-2.41,3.09-5.61,3.09-9.6Z"/>
    <path class="cls-1" d="m136.61,238.92h-54.27v-91.01h52.26v15.7h-32.23v24.29h33.54v10.07h-33.54v25.36h34.25v15.58Z"/>
    <path class="cls-1" d="m216.72,193.42c0,15.05-3.3,26.29-9.89,33.71-6.95,7.86-17.83,11.79-32.65,11.79h-26.19v-91.01h25.06c29.11,0,43.67,15.17,43.67,45.5Zm-19.91,0c0-9.28-1.55-16.31-4.63-21.09-3.76-5.81-10.01-8.71-18.76-8.71h-5.22v59.61h6.41c8.51,0,14.53-3,18.05-9.01,2.77-4.66,4.16-11.59,4.16-20.8Z"/>
    <path class="cls-1" d="m317.21,212.61c0,7.94-2.57,14.34-7.7,19.2-4.98,4.74-11.47,7.11-19.49,7.11h-38.93v-91.01h38.16c7.15,0,12.96,1.97,17.42,5.92,4.62,4.15,6.93,9.76,6.93,16.83,0,11.77-5.41,18.41-16.23,19.91,5.92.95,10.68,3.36,14.28,7.23,3.71,3.99,5.57,8.93,5.57,14.81Zm-23.4-37.27c0-3.79-1.08-6.77-3.23-8.95-2.15-2.17-5.13-3.26-8.92-3.26h-10.84v24.41h11.97c7.35,0,11.02-4.07,11.02-12.21Zm3.5,34.78c0-9.05-4.67-13.57-14.01-13.57h-12.47v27.14h14.19c8.2,0,12.29-4.52,12.29-13.57Z"/>
    <path class="cls-1" d="m392.99,210.3c0,9.87-3.1,17.42-9.3,22.63-5.81,4.86-13.75,7.29-23.82,7.29-21.29,0-31.94-9.97-31.94-29.92v-62.39h20.2v62.8c0,9.08,4.44,13.63,13.33,13.63s13.92-5.63,13.92-16.89v-59.55h17.6v62.39Z"/>
    <path class="cls-1" d="m463.32,163.61h-21.51v75.31h-20.14v-75.31h-21.45v-15.7h63.1v15.7Z"/>
    <path class="cls-1" d="m527.37,163.61h-21.51v75.31h-20.14v-75.31h-21.45v-15.7h63.1v15.7Z"/>
    <path class="cls-1" d="m589.93,238.92h-54.27v-91.01h52.26v15.7h-32.23v24.29h33.54v10.07h-33.54v25.36h34.25v15.58Z"/>
    <path class="cls-1" d="m89.39,361.56c-3.85,3.16-9.33,5.73-16.44,7.7-6.52,1.83-12.59,2.74-18.22,2.74-17.28,0-30.79-5.18-40.51-15.55-9.48-10.07-14.22-23.82-14.22-41.25s5.11-30.66,15.33-41.92c10.57-11.65,24.14-17.48,40.73-17.48,4.64,0,9.97.81,16,2.44,6.57,1.73,11.48,3.83,14.74,6.3l-3.55,27.7h-6.67v-9.63c-4.49-4.1-11.28-6.15-20.37-6.15s-16.64,3.9-22.22,11.7c-4.94,6.91-7.43,15.18-7.48,24.81-.05,11.11,2.05,19.9,6.3,26.37,5.04,7.65,12.81,11.48,23.33,11.48,5.23,0,9.38-.59,12.44-1.78v-29.85h-18.66v-12.59h39.48v54.95Z"/>
    <path class="cls-1" d="m202.99,370.37h-27.27l-7.94-19.11h-39.42l-7.04,19.11h-24.9l49.18-114.57h7.85l49.55,114.57Zm-39.97-30.29l-15.5-37.9-15.3,37.9h30.79Z"/>
    <path class="cls-1" d="m304.99,370.37h-28.03l-29.11-48.21h-10.22v48.21h-25.18v-113.76h37.85c11.36,0,20.47,2.47,27.33,7.41,7.8,5.63,11.7,13.9,11.7,24.82,0,14.72-6.03,23.98-18.09,27.78l33.75,53.76Zm-40.55-77.17c0-11.31-5.4-16.96-16.19-16.96h-10.62v33.77h11.44c4.9,0,8.74-1.6,11.51-4.81,2.57-3.01,3.86-7.01,3.86-12Z"/>
    <path class="cls-1" d="m400.77,313.49c0,18.81-4.12,32.86-12.37,42.14-8.69,9.83-22.29,14.74-40.81,14.74h-32.74v-113.76h31.33c36.39,0,54.58,18.96,54.58,56.88Zm-24.88,0c0-11.6-1.93-20.39-5.79-26.37-4.7-7.26-12.52-10.89-23.45-10.89h-6.53v74.51h8.01c10.64,0,18.16-3.75,22.56-11.26,3.46-5.83,5.19-14.49,5.19-26Z"/>
    <path class="cls-1" d="m486.15,370.37h-67.84v-113.76h65.32v19.63h-40.29v30.37h41.92v12.59h-41.92v31.7h42.81v19.48Z"/>
    <path class="cls-1" d="m589.52,370.37h-11l-51.8-65.49v65.49h-24v-113.76h10.96l51.84,65.17v-65.17h24v113.76Z"/>
  </g>
</svg>